<svg width="100" height="100" xmlns="http://www.w3.org/2000/svg" enable-background="new 0 0 100 100" xml:space="preserve">
 <g>
  <title>Layer 1</title>
  <path fill="#FFFFFF" d="m25.1,22.6c2,0 3,0 5.1,0c-6,13.4 -6,23.4 0,36.8c-2,0 -3,0 -5.1,0c-6.9,-15.4 -6.9,-21.4 0,-36.8z" id="svg_1"/>
  <path fill="#FFFFFF" d="m47.1,45.5c0.5,2.3 0.8,4.1 1.1,4.9c0.4,1.1 1,2 1.8,2.7c1.9,-1.5 4.3,-2.3 6.8,-2.3c1.6,0 3.1,0.4 4.6,1c0.2,-0.3 0.3,-0.7 0.3,-1.1c0,-1.2 -1,-2.2 -2.2,-2.2c-0.4,0 -0.7,0.1 -1,0.2l0,0c0,0 -2.4,1.4 -3.2,0.3c-0.6,-1.1 -1.1,-2.6 -1.5,-4.5c-0.3,-1.6 -0.8,-3.6 -1.1,-5.4l2.4,-3.5c0,0 2.7,1 4.1,1s4.2,-1.1 4.2,-4.8c0,-3.7 -2.7,-3.9 -3.5,-3.9c-1.6,0 -3.2,1.2 -4.6,3.6c-1.4,2.5 -3,5.2 -3,5.2l-0.1,0c-0.4,-1.8 -0.6,-3.2 -0.8,-3.8c-0.3,-1.5 -2.1,-4.8 -5.7,-4.8c-3.7,0 -7,2.1 -7,2.1l0,0c-0.6,0.4 -1,1.1 -1,1.9c0,1.2 1,2.2 2.2,2.2c0.4,0 0.7,-0.1 1,-0.2l0,0c0,0 2.8,-1.6 3.4,0c0.2,0.5 0.3,1 0.5,1.5c0.7,2.4 1.4,5.2 1.9,7.8l-2.4,3.5c0,0 -2.7,-1 -4.1,-1c-1.4,0 -4.2,1.1 -4.2,4.8c0,3.7 2.7,3.9 3.5,3.9c1.6,0 3.2,-1.2 4.6,-3.6c1.4,-2.8 3,-5.5 3,-5.5z" id="svg_2"/>
  <path fill="#FFFFFF" d="m72,53.5c0.1,0.1 0.1,0.1 0.2,0.1c0.4,0 0.7,-0.1 1.1,-0.1l0,0l0,0c1.3,0 2.5,0.2 3.6,0.6c4.6,-11.8 3.9,-18.1 -2.2,-31.6c-2,0 -3,0 -5.1,0c5.2,11.5 5.9,20.4 2.4,31z" id="svg_3"/>
  <rect x="0" y="0" fill="#AF84A3" stroke="#000" stroke-width="0" width="100" height="100" id="svg_6" rx="10"/>
  <path fill="#fff" d="m73.12356,43.6533a6.87457,6.98138 0 1 1 -6.12462,10.15473l-1.13743,0c-6.73708,0.07616 -9.11194,2.15788 -12.8867,9.31696l-0.21249,0.41888l-0.24998,0.48235c-2.24986,4.27768 -3.52478,6.21977 -5.82464,8.2761c-3.2373,2.8814 -7.41204,4.35384 -12.9367,4.35384l-0.74995,0a6.87457,6.98138 0 1 1 0,-6.3467l1.13743,0c6.86208,-0.07616 9.19943,-2.23404 13.09919,-9.73585l0,0l0.26248,-0.41888a33.9729,34.50069 0 0 1 3.88726,-6.3467l-18.38636,0a6.87457,6.98138 0 1 1 0,-6.3467l33.99789,0a6.91207,7.01946 0 0 1 5.84964,-3.80802l0.27498,0l0,-0.00001zm0,-24.11748a6.87457,6.98138 0 1 1 -6.12462,10.15473l-33.99789,0a6.87457,6.98138 0 1 1 0,-6.3467l33.99789,0a6.87457,6.98138 0 0 1 6.12462,-3.80802l0,-0.00001z" id="svg_5" stroke="null"/>
 </g>

</svg>